<svg id="レイヤー_1" data-name="レイヤー 1" xmlns="http://www.w3.org/2000/svg" viewBox="0 0 800 800"><g id="dD8OAV"><path d="M398.21,795.59c-59.17.06-118.26-.11-177.4-4.33C98.58,782.53,16.59,701.4,9,579.13A2884.5,2884.5,0,0,1,9,221.31C16.58,99,98.51,17.07,220.79,9.48a2884.5,2884.5,0,0,1,357.82,0C700.9,17.06,782.83,99,790.44,221.26a2880.78,2880.78,0,0,1,0,357.83c-7.59,122.28-89.56,203.41-211.76,212.17C518.51,795.57,458.4,795.58,398.21,795.59ZM80.59,400.18c-2.12,58.2.93,116.26,4.49,174.3,5.15,84.11,56.24,135.16,140.35,140.37a2815.22,2815.22,0,0,0,348.57,0c84.09-5.21,135.16-56.27,140.37-140.37a2815.06,2815.06,0,0,0,0-348.56C709.16,141.8,658.11,90.76,574,85.54a2817,2817,0,0,0-348.56,0C141.32,90.76,90.23,141.8,85.08,225.91,81.52,284,78.48,342,80.59,400.18Z"/><path d="M604.58,400.37C604.4,511,508.81,606,398.78,605c-111-1-205.64-96.87-203.89-206.54C196.65,288.27,289.45,196,399.12,195.34,509.29,194.72,604.76,290,604.58,400.37Zm-78.91-.85c-.23-72.31-52.83-125-125.1-125.27-73.86-.28-127,52.81-126.8,126.62.22,72.31,52.83,125,125.1,125.27C472.73,526.43,525.89,473.34,525.67,399.52Z"/><path d="M658.09,191.72c-.45,26.7-22.81,48.1-49.86,47.73a48.46,48.46,0,0,1-47.71-49.51c.56-27.06,22.73-48.6,49.42-48C636.31,142.48,658.53,165.46,658.09,191.72Z"/></g></svg>