<?xml version="1.0" encoding="utf-8"?>
<!-- Generator: Adobe Illustrator 24.2.3, SVG Export Plug-In . SVG Version: 6.00 Build 0)  -->
<svg version="1.1" id="レイヤー_1" xmlns="http://www.w3.org/2000/svg" xmlns:xlink="http://www.w3.org/1999/xlink" x="0px"
	 y="0px" viewBox="0 0 252.9 205.2" style="enable-background:new 0 0 252.9 205.2;" xml:space="preserve">
<g id="Logo__x2014__FIXED">
	<g>
		<path d="M81.5,205.2c94.3,0,145.9-78.2,145.9-145.9c0-2.2,0-4.4-0.1-6.6c10-7.2,18.7-16.3,25.6-26.6c-9.2,4.1-19.1,6.8-29.5,8.1
			C234,27.9,242.1,17.8,246,5.8c-9.9,5.9-20.9,10.1-32.6,12.4C204,8.2,190.7,2,176,2c-28.3,0-51.3,23-51.3,51.3
			c0,4,0.5,7.9,1.3,11.7C83.4,62.9,45.6,42.4,20.3,11.4c-4.4,7.6-6.9,16.4-6.9,25.8c0,17.8,9.1,33.5,22.8,42.7
			c-8.4-0.3-16.3-2.6-23.2-6.4c0,0.2,0,0.4,0,0.7c0,24.8,17.7,45.6,41.1,50.3c-4.3,1.2-8.8,1.8-13.5,1.8c-3.3,0-6.5-0.3-9.6-0.9
			c6.5,20.4,25.5,35.2,47.9,35.6c-17.6,13.8-39.7,22-63.7,22c-4.1,0-8.2-0.2-12.2-0.7C25.6,196.7,52.6,205.2,81.5,205.2"/>
	</g>
</g>
</svg>
