<svg id="レイヤー_1" data-name="レイヤー 1" xmlns="http://www.w3.org/2000/svg" viewBox="0 0 81.62 79.62"><g id="AtfwSr"><path d="M49.82,58.81C64,54.89,70.14,46.28,66.67,34.09c-1.39-4.85-3.26-9.42-3-14.65.15-3-2-5-4.87-3.13-8.66,5.81-18.4.63-27.42,3-2.14.57-5.09-1.83-7.65-2.91-3.76-1.59-6-.2-5.83,3.7.21,4.71-1.23,8.79-2.68,13.17C11.42,44.81,17.38,54.84,29.12,58c.92.25,1.87.43,4.14.94-2.2,2.36-3.87,5.57-5.42,5.52a15.48,15.48,0,0,1-8.52-3.43c-2.6-2.09-4.2-5.48-9.23-4.28C16.4,62.46,17.81,73.66,29.4,70c.48.72.83,1,.81,1.26-.22,2.52-.5,5-.76,7.57-2.45-.63-5.1-.87-7.32-2A40.57,40.57,0,0,1,.81,31.22C5.34,12.32,21.08,0,40.68-.07c19.89,0,36.09,12.89,40.24,32.12A41,41,0,0,1,57.75,77.8c-5.81,2.67-6.66,2.1-6.64-4.51,0-2.47.16-5,0-7.42C50.87,63.61,50.29,61.39,49.82,58.81Z"/></g></svg>