<?xml version="1.0" encoding="utf-8"?>
<!-- Generator: Adobe Illustrator 23.0.4, SVG Export Plug-In . SVG Version: 6.00 Build 0)  -->
<svg version="1.1" id="レイヤー_1" xmlns="http://www.w3.org/2000/svg" xmlns:xlink="http://www.w3.org/1999/xlink" x="0px"
	 y="0px" viewBox="0 0 646 55" style="enable-background:new 0 0 646 55;" xml:space="preserve">
<style type="text/css">
	.st0{fill:#FFFFFF;}
</style>
<title>kazumi_inada</title>
<g>
	<path class="st0" d="M5.8,2.8h10.6v21.4l20-21.4h14L29.2,24.1l22.3,30.5H37.6L21.6,32l-5.2,5.3v17.3H5.8V2.8z"/>
	<path class="st0" d="M83.2,2.8h12.3l18.3,51.8H102l-3.4-10.7H79.5L76,54.6H64.7L83.2,2.8z M82.5,35h13.3l-6.5-20.4L82.5,35z"/>
	<path class="st0" d="M127.5,45.5L154,11.9h-25.8V2.8h39.3v8.7l-26.8,34h26.9v9.1h-40L127.5,45.5z"/>
	<path class="st0" d="M186,2.8h11v31.8c0,3.6,0.4,6.2,1.3,7.8c1.3,2.9,4.2,4.4,8.6,4.4s7.2-1.5,8.5-4.4c0.8-1.6,1.3-4.2,1.3-7.8V2.8
		h11v31.8c0,5.5-0.9,9.8-2.6,12.9c-3.2,5.6-9.3,8.4-18.2,8.4s-15-2.8-18.2-8.4c-1.7-3.1-2.6-7.4-2.6-12.9V2.8z"/>
	<path class="st0" d="M283.1,2.8h15.6v51.8h-10.1v-35c0-1,0-2.4,0-4.2s0-3.2,0-4.2l-9.8,43.5h-10.5l-9.8-43.5c0,1,0,2.4,0,4.2
		s0,3.2,0,4.2v35h-10V2.8h15.8l9.4,40.7L283.1,2.8z"/>
	<path class="st0" d="M329.4,54.6h-10.8V2.8h10.8V54.6z"/>
	<path class="st0" d="M391,54.6h-10.8V2.8H391V54.6z"/>
	<path class="st0" d="M411.8,2.8h11.4l20.6,36.1V2.8h10.1v51.8H443l-21.1-36.8v36.8h-10.1V2.8z"/>
	<path class="st0" d="M489.5,2.8h12.2l18.3,51.8h-11.7L505,43.9h-19.1l-3.5,10.6H471L489.5,2.8z M488.8,35h13.3l-6.5-20.4L488.8,35z
		"/>
	<path class="st0" d="M567.9,3.9c3.6,1.2,6.7,3.5,8.8,6.6c1.8,2.5,3,5.4,3.7,8.4c0.6,2.8,1,5.7,1,8.6c0,6.9-1.4,12.7-4.2,17.5
		c-3.7,6.4-9.5,9.7-17.4,9.7h-22.4V2.8h22.3C562.6,2.7,565.3,3.1,567.9,3.9z M548,11.8v33.8h10c5.1,0,8.7-2.5,10.7-7.6
		c1.2-3.2,1.7-6.5,1.7-9.9c0-5.3-0.8-9.3-2.5-12.1s-4.9-4.2-9.9-4.2H548z"/>
	<path class="st0" d="M615.1,2.8h12.3l18.3,51.8H634l-3.4-10.6h-19.1L608,54.6h-11.3L615.1,2.8z M614.4,35h13.3l-6.5-20.4L614.4,35z
		"/>
</g>
</svg>
